<svg width="24" height="24" viewBox="0 0 24 24" fill="none" xmlns="http://www.w3.org/2000/svg">
<path d="M3 6.99981L11.445 1.36981C11.6093 1.26017 11.8025 1.20166 12 1.20166C12.1975 1.20166 12.3907 1.26017 12.555 1.36981L21 6.99981V20.9998C21 21.265 20.8946 21.5194 20.7071 21.7069C20.5196 21.8945 20.2652 21.9998 20 21.9998H4C3.73478 21.9998 3.48043 21.8945 3.29289 21.7069C3.10536 21.5194 3 21.265 3 20.9998V6.99981ZM5 8.06981V19.9998H19V8.06981L12 3.40381L5 8.06981ZM8 15.9998H16V17.9998H8V15.9998ZM8 12.9998H16V14.9998H8V12.9998ZM12 10.9998C11.4696 10.9998 10.9609 10.7891 10.5858 10.414C10.2107 10.039 10 9.53024 10 8.99981C10 8.46938 10.2107 7.96067 10.5858 7.5856C10.9609 7.21052 11.4696 6.99981 12 6.99981C12.5304 6.99981 13.0391 7.21052 13.4142 7.5856C13.7893 7.96067 14 8.46938 14 8.99981C14 9.53024 13.7893 10.039 13.4142 10.414C13.0391 10.7891 12.5304 10.9998 12 10.9998Z" fill="#2257DE"/>
</svg>
